<?xml version="1.0" encoding="utf-8"?>
<!-- Generator: Adobe Illustrator 16.0.3, SVG Export Plug-In . SVG Version: 6.00 Build 0)  -->
<!DOCTYPE svg PUBLIC "-//W3C//DTD SVG 1.1//EN" "http://www.w3.org/Graphics/SVG/1.1/DTD/svg11.dtd">
<svg version="1.1" id="Layer_1" xmlns="http://www.w3.org/2000/svg" xmlns:xlink="http://www.w3.org/1999/xlink" x="0px" y="0px"
	 width="467px" height="184px" viewBox="0 0 467 184" enable-background="new 0 0 467 184" xml:space="preserve">
<path fill="#FFFFFF" d="M444.321,136.979c-8.83,0-13.335,5.826-14.04,6.709c-2.299-4.234-6.357-6.709-11.74-6.709
	c-7.766,0-12.182,4.504-12.895,5.297c-0.345-1.235-1.938-4.502-6.973-4.502c-1.408,0-3.529,0.443-3.706,0.443
	c0.177,0.969,1.148,5.559,1.148,11.914c0,3.975,0,27.896,0,27.896h10.241v-28.426c0.172-0.177,3.978-4.062,8.56-4.062
	c4.687,0,6.892,3.444,6.892,8.122v24.365h10.237v-28.426c0.267-0.263,3.974-4.063,8.651-4.063s6.795,3.443,6.795,8.122v24.364
	h10.331v-25.952C457.824,142.895,452.617,136.979,444.321,136.979 M332.295,170.613c-6.975,0-11.914-5.475-11.914-12.624
	c0-7.946,5.645-12.71,11.914-12.71c3.354,0,4.768,0.972,6.979,0.972c2.379,0,3.703-1.153,4.852-3.446
	c0.705-1.229,1.063-2.031,1.063-2.031c-0.533-0.267-5.649-3.797-14.479-3.797c-12.892,0-20.567,9.273-20.567,21.013
	c0,12.889,8.83,20.918,20.567,20.918c8.565,0,13.683-3.439,14.651-4.146l-3.53-6.972
	C341.037,168.316,337.323,170.613,332.295,170.613z M220.186,136.979c-9.799,0-18.01,7.946-18.01,21.012
	c0,13.332,8.036,20.918,19.954,20.918c9.531,0,14.472-4.145,15.093-4.502c0,0-0.971-1.498-1.233-1.938
	c-1.327-2.211-2.825-2.913-4.505-2.913c-3.355,0-3.792,1.41-8.386,1.41c-7.855,0-10.593-6.089-10.77-10.146h26.215
	c0-1.065,0-2.476,0-3.092C238.543,145.279,231.399,136.979,220.186,136.979z M212.328,153.484c0-4.584,3.177-8.825,7.767-8.825
	c5.031,0,7.77,4.411,7.856,8.825H212.328z M256.023,166.73v-41.844c0-4.678-3.092-8.299-8.033-8.299c-0.266,0-2.117,0-2.117,0
	v54.202c0,5.033,3.087,8.117,8.479,8.117c6.618,0,8.561-4.677,8.561-9.175c-0.266,0.174-1.68,0.707-3.092,0.707
	C257.439,170.439,256.023,169.113,256.023,166.73z M187.697,165.316v-19.858h8.563l3.001-7.685h-11.565v-12.002
	c0,0-0.88-0.092-0.969,0c-4.506,0-9.271,1.851-9.271,11.914v0.088h-7.503v7.686h7.503v23.391c0,6.619,3.972,10.06,9.536,10.06
	c4.501,0,10.324-1.319,10.324-10.234c-0.35,0.177-2.559,1.583-4.939,1.583C189.021,170.256,187.697,168.23,187.697,165.316z
	 M284.359,136.979c-9.799,0-18.099,7.946-18.099,21.012c0,13.332,8.035,20.918,20.048,20.918c9.441,0,14.383-4.145,15.002-4.502
	c0,0-0.885-1.498-1.148-1.938c-1.409-2.211-2.91-2.913-4.587-2.913c-3.356,0-3.798,1.41-8.388,1.41
	c-7.771,0-10.508-6.089-10.684-10.146h26.221c0-1.065,0-2.476,0-3.092C302.727,145.279,295.486,136.979,284.359,136.979z
	 M276.414,153.484c0-4.584,3.27-8.825,7.771-8.825c5.032,0,7.854,4.411,7.939,8.825H276.414z M368.751,178.907
	c-12.534,0-20.037-8.208-20.037-20.918c0-12.622,7.415-21.013,20.037-21.013c12.621,0,20.044,8.391,20.044,21.013
	C388.795,169.906,381.994,178.907,368.751,178.907z M368.751,171.055c6.267,0,9.894-5.386,9.894-13.064
	c0-7.68-3.541-13.153-9.894-13.153c-6.177,0-9.888,5.383-9.888,13.153C358.863,165.489,362.396,171.055,368.751,171.055z"/>
<path fill="#FFFFFF" d="M39.573,133.357c-6.181-2.912-11.3-5.202-11.3-9.969c0-3.623,2.912-6.181,8.648-6.181
	c2.031,0,3.8,0.173,5.563,0.522c0.884,0.182,1.849,0.357,2.737,0.357c4.944,0,7.766-3.001,9.619-8.65l0.795-2.297
	c-0.795-0.353-8.913-3.88-19.508-3.88c-16.862,0-25.776,10.767-25.776,22.069c0,5.646,1.766,9.708,4.5,12.972
	c3.624,4.146,8.657,6.886,13.42,9.181c6.972,3.444,13.236,5.914,13.236,10.944c0,4.505-4.587,7.063-10.765,7.063
	c-8.563,0-15.976-4.852-16.859-5.381L6.91,173.174c1.235,0.703,10.152,6.355,24.979,6.355c15.716,0,27.632-9.008,27.632-22.953
	C59.521,142.805,48.49,137.686,39.573,133.357 M101.102,139.807l28.597-35.047H109.31l-22.773,30.188h-0.359V104.76H69.409v74.147
	h1.057c7.242,0,15.886-3.353,15.886-15.447v-17.038h0.271l23.214,31.605h21.365L101.102,139.807z"/>
<path fill="#FFFFFF" d="M130.58,25.309c-5.912,1.151-14.654,6.531-14.561,15.979c0,8.563,7.063,13.858,7.063,25.07
	c0,8.475-4.681,14.213-9.712,17.394c2.031-0.176,4.238-0.265,6.709-0.265c5.21-0.091,8.294,0.438,8.474,0.438l26.481-32.488
	C147.709,40.409,139.146,31.931,130.58,25.309"/>
<path fill="#FFFFFF" d="M152.83,113.145c3.353-5.213,3.793-13.504,4.062-21.891c0.353-7.858,1.94-13.772,12.445-13.858
	c2.382,0,4.589,0.35,8.561,0.35c15.452-0.08,25.516-5.383,31.785-8.916c-12.803-8.117-31.429-16.416-54.648-17.391
	c-1.498,4.243-13.241,36.904-14.122,39.553c0.175,0.08,2.209,2.379,4.766,6.881C149.478,104.052,151.507,109.264,152.83,113.145"/>
<path fill="#FFFFFF" d="M96.95,86.485c-1.407,0-2.03-0.879-2.208-2.47c-0.172-1.503-6.795-62.145-7.769-71.237
	c-0.175-1.415-0.527-3.797-0.527-4.684c0-1.407,0.974-2.2,2.032-2.2c3.089,0,20.213,3.968,38.4,16.769
	c-5.21,1.41-14.744,6.886-14.657,18.187c0,9.888,7.153,15.447,7.239,25.425C119.46,82.512,100.749,86.485,96.95,86.485"/>
<path fill="#FFFFFF" d="M154.413,117.473c0.269,0.701,0.533,1.324,0.802,1.764c0.438,0.703,0.965,1.058,1.588,1.058
	c0.441,0,0.969-0.176,1.587-0.438c1.322-0.619,56.672-26.398,64.967-30.188c1.239-0.622,3.533-1.594,4.333-2.037
	c0.791-0.443,1.143-1.148,1.143-1.76c0-0.446-0.177-0.798-0.352-1.154c-1.057-1.677-6.444-7.321-15.362-13.505
	c-7.06,3.882-18.187,9.89-34.687,9.973c-4.066,0-4.946-0.259-7.684-0.259c-8.118,0.083-10.063,3.527-10.42,10.587
	c0,1.33-0.082,3.092-0.082,5.036C159.98,102.9,159.185,111.641,154.413,117.473"/>
</svg>
