<?xml version="1.0" encoding="utf-8"?>
<!-- Generator: Adobe Illustrator 16.0.3, SVG Export Plug-In . SVG Version: 6.00 Build 0)  -->
<!DOCTYPE svg PUBLIC "-//W3C//DTD SVG 1.1//EN" "http://www.w3.org/Graphics/SVG/1.1/DTD/svg11.dtd">
<svg version="1.1" id="Layer_1" xmlns="http://www.w3.org/2000/svg" xmlns:xlink="http://www.w3.org/1999/xlink" x="0px" y="0px"
	 width="85px" height="85px" viewBox="0 0 85 85" enable-background="new 0 0 85 85" xml:space="preserve">
<g>
	<path fill="#FFFFFF" d="M42.5,0C65.972,0,85,19.028,85,42.5S65.972,85,42.5,85S0,65.972,0,42.5S19.028,0,42.5,0z"/>
</g>
<g>
	<path fill="#EDCC83" d="M53.526,34.612c0,1.068-0.866,1.935-1.935,1.935s-1.934-0.867-1.934-1.935s0.865-1.935,1.934-1.935
		S53.526,33.544,53.526,34.612z M58.041,28.808c0-0.362-0.322-0.645-0.686-0.645c-7.014,0-10.863,1.613-15.9,6.631
		c-1.148,1.168-2.337,2.499-3.546,3.93l-7.638,0.403c-0.202,0.02-0.402,0.142-0.523,0.323l-4.515,7.74
		c-0.142,0.242-0.101,0.563,0.101,0.785l1.29,1.291c0.121,0.119,0.303,0.18,0.464,0.18c0.061,0,0.121,0,0.181-0.021l5.562-1.711
		l5.663,5.663l-1.712,5.563c-0.061,0.222,0,0.464,0.162,0.644l1.29,1.29c0.142,0.121,0.302,0.182,0.463,0.182
		c0.121,0,0.221-0.022,0.323-0.08l7.739-4.516c0.182-0.12,0.301-0.322,0.324-0.522l0.402-7.64c1.432-1.209,2.762-2.398,3.93-3.547
		C56.188,39.953,58.041,35.499,58.041,28.808z"/>
</g>
</svg>
